<svg width="646" height="648" viewBox="0 0 646 648" fill="none" xmlns="http://www.w3.org/2000/svg" id="retro-grid">
  <mask id="retro-grid_mask0_39_2" style="mask-type:alpha" maskUnits="userSpaceOnUse" x="-1" y="0" width="648"
    height="647">
    <g opacity="0.6">
      <path d="M178.492 0.861206V381.608L0.111816 453.027" stroke="white" stroke-width="0.25" stroke-linecap="round"
        stroke-linejoin="round"></path>
      <path d="M207.383 0.861206V381.608L0.111816 485.334" stroke="white" stroke-width="0.25" stroke-linecap="round"
        stroke-linejoin="round"></path>
      <path d="M236.273 0.861206V381.608L0.111328 539.163" stroke="white" stroke-width="0.25" stroke-linecap="round"
        stroke-linejoin="round"></path>
      <path d="M265.167 0.861206V381.608L0.249023 646.639" stroke="white" stroke-width="0.25" stroke-linecap="round"
        stroke-linejoin="round"></path>
      <path d="M294.057 0.861206V381.608L161.484 646.639" stroke="white" stroke-width="0.25" stroke-linecap="round"
        stroke-linejoin="round"></path>
      <path d="M322.949 0.861206V381.608L322.723 646.639" stroke="white" stroke-width="0.25" stroke-linecap="round"
        stroke-linejoin="round"></path>
      <path d="M351.842 0.861206V381.608L483.958 646.639" stroke="white" stroke-width="0.25" stroke-linecap="round"
        stroke-linejoin="round"></path>
      <path d="M380.733 0.861206V381.608L645.194 646.639" stroke="white" stroke-width="0.25" stroke-linecap="round"
        stroke-linejoin="round"></path>
      <path d="M409.626 0.861206V381.608L645.889 539.41" stroke="white" stroke-width="0.25" stroke-linecap="round"
        stroke-linejoin="round"></path>
      <path d="M438.517 0.861206V381.608L645.889 485.472" stroke="white" stroke-width="0.25" stroke-linecap="round"
        stroke-linejoin="round"></path>
      <path d="M467.409 0.861206V381.608L645.889 453.117" stroke="white" stroke-width="0.25" stroke-linecap="round"
        stroke-linejoin="round"></path>
      <path d="M496.302 0.861206V381.608L645.889 431.549" stroke="white" stroke-width="0.25" stroke-linecap="round"
        stroke-linejoin="round"></path>
      <path d="M525.193 0.861206V381.608L645.889 416.146" stroke="white" stroke-width="0.25" stroke-linecap="round"
        stroke-linejoin="round"></path>
      <path d="M554.083 0.861206V381.608L645.889 404.594" stroke="white" stroke-width="0.25" stroke-linecap="round"
        stroke-linejoin="round"></path>
      <path d="M582.977 0.861206V381.608L645.889 395.609" stroke="white" stroke-width="0.25" stroke-linecap="round"
        stroke-linejoin="round"></path>
      <path d="M611.868 0.861206V381.608L645.889 388.423" stroke="white" stroke-width="0.25" stroke-linecap="round"
        stroke-linejoin="round"></path>
      <path d="M640.758 0.861206V381.608L645.889 382.541" stroke="white" stroke-width="0.25" stroke-linecap="round"
        stroke-linejoin="round"></path>
      <path d="M0.111328 416.099L120.707 381.608V0.860962" stroke="white" stroke-width="0.25" stroke-linecap="round"
        stroke-linejoin="round"></path>
      <path d="M149.598 0.861206V381.608L0.111328 431.487" stroke="white" stroke-width="0.25" stroke-linecap="round"
        stroke-linejoin="round"></path>
      <path d="M91.8168 0.861206V381.608L0.11084 404.56" stroke="white" stroke-width="0.25" stroke-linecap="round"
        stroke-linejoin="round"></path>
      <path d="M62.9228 0.861206V381.608L0.111816 395.58" stroke="white" stroke-width="0.25" stroke-linecap="round"
        stroke-linejoin="round"></path>
      <path d="M34.0323 0.861206V381.608L0.111328 388.398" stroke="white" stroke-width="0.25" stroke-linecap="round"
        stroke-linejoin="round"></path>
      <path d="M5.13833 0.861206V381.608L0.111328 382.523" stroke="white" stroke-width="0.25" stroke-linecap="round"
        stroke-linejoin="round"></path>
      <path d="M0.111328 352.717H645.889" stroke="white" stroke-width="0.25" stroke-linecap="round"
        stroke-linejoin="round"></path>
      <path d="M0.111328 323.823H645.889" stroke="white" stroke-width="0.25" stroke-linecap="round"
        stroke-linejoin="round"></path>
      <path d="M0.111328 294.933H645.889" stroke="white" stroke-width="0.25" stroke-linecap="round"
        stroke-linejoin="round"></path>
      <path d="M0.111328 266.042H645.889" stroke="white" stroke-width="0.25" stroke-linecap="round"
        stroke-linejoin="round"></path>
      <path d="M0.111328 237.148H645.889" stroke="white" stroke-width="0.25" stroke-linecap="round"
        stroke-linejoin="round"></path>
      <path d="M0.111328 208.258H645.889" stroke="white" stroke-width="0.25" stroke-linecap="round"
        stroke-linejoin="round"></path>
      <path d="M0.111328 179.367H645.889" stroke="white" stroke-width="0.25" stroke-linecap="round"
        stroke-linejoin="round"></path>
      <path d="M0.111328 150.473H645.889" stroke="white" stroke-width="0.25" stroke-linecap="round"
        stroke-linejoin="round"></path>
      <path d="M0.111328 121.582H645.889" stroke="white" stroke-width="0.25" stroke-linecap="round"
        stroke-linejoin="round"></path>
      <path d="M0.111328 92.6918H645.889" stroke="white" stroke-width="0.25" stroke-linecap="round"
        stroke-linejoin="round"></path>
      <path d="M0.111328 63.7976H645.889" stroke="white" stroke-width="0.25" stroke-linecap="round"
        stroke-linejoin="round"></path>
      <path d="M0.111328 34.9071H645.889" stroke="white" stroke-width="0.25" stroke-linecap="round"
        stroke-linejoin="round"></path>
      <path d="M0.111328 6.01343H645.889" stroke="white" stroke-width="0.25" stroke-linecap="round"
        stroke-linejoin="round"></path>
      <path d="M645.889 508.719H0.111328" stroke="white" stroke-width="0.25" stroke-linecap="round"
        stroke-linejoin="round"></path>
      <path d="M645.889 486.387H0.111328" stroke="white" stroke-width="0.25" stroke-linecap="round"
        stroke-linejoin="round"></path>
      <path d="M645.889 468.869H0.111328" stroke="white" stroke-width="0.25" stroke-linecap="round"
        stroke-linejoin="round"></path>
      <path d="M645.889 538.158H0.111328" stroke="white" stroke-width="0.25" stroke-linecap="round"
        stroke-linejoin="round"></path>
      <path d="M645.889 454.756H0.111328" stroke="white" stroke-width="0.25" stroke-linecap="round"
        stroke-linejoin="round"></path>
      <path d="M645.889 443.145H0.111328" stroke="white" stroke-width="0.25" stroke-linecap="round"
        stroke-linejoin="round"></path>
      <path d="M645.889 384.204H0.111328" stroke="white" stroke-width="0.25" stroke-linecap="round"
        stroke-linejoin="round"></path>
      <path d="M645.889 381.608H0.111328" stroke="white" stroke-width="0.25" stroke-linecap="round"
        stroke-linejoin="round"></path>
      <path d="M645.889 390.165H0.111328" stroke="white" stroke-width="0.25" stroke-linecap="round"
        stroke-linejoin="round"></path>
      <path d="M645.889 387.045H0.111328" stroke="white" stroke-width="0.25" stroke-linecap="round"
        stroke-linejoin="round"></path>
      <path d="M645.889 418.066H0.111328" stroke="white" stroke-width="0.25" stroke-linecap="round"
        stroke-linejoin="round"></path>
      <path d="M645.889 433.423H0.111328" stroke="white" stroke-width="0.25" stroke-linecap="round"
        stroke-linejoin="round"></path>
      <path d="M645.889 578.744H0.111328" stroke="white" stroke-width="0.25" stroke-linecap="round"
        stroke-linejoin="round"></path>
      <path d="M645.889 397.431H0.111328" stroke="white" stroke-width="0.25" stroke-linecap="round"
        stroke-linejoin="round"></path>
      <path d="M645.889 393.61H0.111328" stroke="white" stroke-width="0.25" stroke-linecap="round"
        stroke-linejoin="round"></path>
      <path d="M645.889 411.896H0.111328" stroke="white" stroke-width="0.25" stroke-linecap="round"
        stroke-linejoin="round"></path>
      <path d="M645.889 406.48H0.111328" stroke="white" stroke-width="0.25" stroke-linecap="round"
        stroke-linejoin="round"></path>
      <path d="M645.889 401.694H0.111328" stroke="white" stroke-width="0.25" stroke-linecap="round"
        stroke-linejoin="round"></path>
      <path d="M645.889 425.166H0.111328" stroke="white" stroke-width="0.25" stroke-linecap="round"
        stroke-linejoin="round"></path>
      <path d="M645.194 646.639H0.249023" stroke="white" stroke-width="0.25" stroke-linecap="round"
        stroke-linejoin="round"></path>
    </g>
  </mask>
  <g mask="url(#retro-grid_mask0_39_2)">
    <rect y="1" width="646" height="1122" fill="url(#retro-grid_paint0_radial_39_2)"></rect>
  </g>
  <defs>
    <radialGradient id="retro-grid_paint0_radial_39_2" cx="0" cy="0" r="1" gradientUnits="userSpaceOnUse"
      gradientTransform="translate(323 562) rotate(90) scale(561 323)">
      <stop offset="0.65625"></stop>
      <stop offset="1" stop-opacity="0"></stop>
    </radialGradient>
  </defs>
</svg>